<?xml version="1.0" standalone="no"?>
<!DOCTYPE svg PUBLIC "-//W3C//DTD SVG 20010904//EN" "http://www.w3.org/TR/2001/REC-SVG-20010904/DTD/svg10.dtd">
<svg version="1.0" xmlns="http://www.w3.org/2000/svg" width="567.000000pt" height="529.000000pt" viewBox="0 0 1967.000000 1929.000000" preserveAspectRatio="xMidYMid meet">

    <g transform="translate(0.000000,1929.000000) scale(0.100000,-0.100000)" fill="#000000" stroke="none">
        <path d="M10570 18064 c-515 -383 -1073 -1391 -1299 -2344 -55 -228 -64 -244
-161 -274 -212 -68 -1019 -476 -1450 -734 -1408 -845 -2540 -2073 -3074 -3337
-134 -316 -273 -776 -345 -1140 -78 -396 -105 -666 -105 -1055 -1 -302 6 -406
41 -630 9 -58 17 -161 17 -230 1 -117 -1 -132 -36 -243 -46 -145 -65 -237 -73
-347 -8 -99 -18 -139 -46 -171 -20 -24 -31 -57 -48 -154 -7 -45 -54 -148 -190
-420 -261 -523 -412 -791 -618 -1099 -200 -298 -368 -504 -644 -792 -90 -94
-174 -189 -186 -211 l-22 -39 20 -41 c99 -199 948 -979 1589 -1458 349 -261
961 -637 1197 -735 67 -28 78 -30 130 -21 233 37 592 242 1301 743 491 346
745 509 973 623 138 70 168 93 103 81 -121 -23 -537 -219 -764 -361 -85 -54
-249 -153 -365 -222 -250 -149 -290 -176 -312 -209 -15 -24 -15 -27 15 -70 36
-51 34 -54 -14 -18 -57 44 -95 33 -356 -100 -259 -132 -368 -182 -509 -231
l-100 -35 -245 158 c-240 154 -314 205 -672 467 -311 228 -556 438 -899 772
l-143 138 44 113 c82 210 92 282 105 752 7 247 13 337 25 375 8 28 55 118 104
200 193 327 486 886 582 1110 86 200 183 446 283 720 l95 260 6 480 c16 1169
63 1681 206 2255 235 941 756 1833 1552 2657 589 609 1174 1076 1928 1540 341
209 686 403 718 403 22 0 60 41 55 59 -4 16 3 22 37 31 23 6 76 25 118 42 72
29 152 64 704 312 131 58 338 148 462 200 265 112 369 163 451 221 79 56 125
79 136 68 17 -17 -33 -91 -157 -228 -215 -239 -347 -431 -469 -680 -199 -409
-245 -682 -232 -1385 7 -335 20 -555 39 -625 l11 -40 8 29 c4 16 11 261 14
545 7 590 16 756 51 930 32 160 74 273 189 506 95 192 156 286 297 458 99 120
278 293 333 319 41 20 47 21 61 6 14 -14 14 -19 0 -53 -9 -21 -52 -86 -95
-144 -187 -250 -333 -524 -446 -836 -124 -342 -173 -642 -182 -1105 -11 -578
54 -1068 210 -1585 l33 -110 365 -6 c396 -6 483 -15 698 -70 326 -84 598 -244
836 -490 50 -52 116 -128 147 -169 122 -162 310 -505 392 -712 23 -59 44 -98
52 -98 48 0 328 564 464 935 105 283 184 604 215 870 17 151 20 480 4 623 -35
327 -153 704 -325 1042 -179 353 -407 646 -769 990 -166 158 -484 426 -575
485 -115 74 -370 226 -565 336 -262 148 -249 140 -253 174 -2 16 4 66 13 111
16 76 17 87 1 165 -8 46 -27 176 -41 287 -50 412 -132 725 -277 1067 -115 272
-226 455 -276 455 -9 0 -51 -25 -92 -56z" />
        <path d="M11571 16022 c-18 -13 -57 -3 569 -142 965 -214 1585 -380 2400 -640
987 -316 2155 -796 3245 -1335 298 -148 378 -190 745 -392 91 -50 278 -149
415 -220 289 -150 399 -215 545 -323 133 -98 146 -105 155 -82 14 37 24 349
25 759 l0 433 -72 36 c-98 49 -257 110 -548 209 -135 46 -292 104 -350 128
-58 25 -179 76 -270 114 -424 180 -1173 441 -1815 633 -1516 453 -3065 735
-4445 809 -305 17 -584 23 -599 13z" />
        <path d="M6366 9108 c-95 -151 -236 -450 -301 -643 -48 -143 -98 -349 -121
-500 -27 -172 -27 -618 0 -790 86 -554 327 -1068 707 -1510 128 -149 464 -487
542 -545 55 -41 58 -42 76 -26 26 23 39 83 56 245 26 250 39 602 39 1041 1
366 -2 455 -17 559 -48 336 -137 698 -262 1061 -77 225 -107 297 -196 468 -44
83 -75 152 -70 152 37 0 263 -383 374 -635 154 -348 268 -821 328 -1361 6 -56
19 -220 29 -365 l19 -264 -5 279 c-9 492 -51 837 -149 1213 -150 575 -416
1072 -804 1501 -77 85 -177 172 -197 172 -8 0 -29 -24 -48 -52z" />
        <path d="M19120 4513 c-202 -19 -390 -59 -625 -133 -55 -17 -197 -56 -315 -86
-787 -203 -1413 -444 -2270 -875 -358 -180 -496 -254 -1025 -552 -648 -364
-936 -536 -1023 -611 -35 -30 -63 -46 -81 -46 -40 0 -167 -65 -358 -182 -92
-57 -211 -126 -263 -152 -52 -27 -193 -104 -315 -171 -293 -163 -554 -299
-815 -427 -118 -58 -260 -136 -315 -173 -110 -74 -166 -105 -190 -105 -36 0
-186 184 -336 412 -72 110 -122 205 -186 348 -33 74 -133 198 -258 319 -64 62
-113 117 -108 121 4 5 116 69 248 143 306 171 392 223 600 365 284 192 552
405 818 650 314 289 858 887 819 900 -23 7 -81 -36 -201 -152 -224 -216 -681
-585 -1121 -905 -780 -568 -1731 -987 -2649 -1165 -282 -55 -582 -76 -1098
-76 l-343 0 0 68 c0 82 37 310 125 772 96 504 135 764 117 782 -13 13 -25 -21
-156 -462 -178 -596 -233 -834 -243 -1047 -8 -186 12 -235 119 -283 127 -56
707 -88 1093 -60 304 22 678 86 970 165 467 126 534 138 638 112 36 -10 84
-17 106 -17 55 0 98 -39 184 -170 72 -110 379 -719 466 -926 90 -214 94 -234
99 -587 l4 -307 4220 0 4221 0 -7 1273 c-3 699 -9 1716 -12 2260 l-7 987 -246
-2 c-135 0 -262 -3 -281 -5z" />
    </g>
</svg>