<?xml version="1.0" standalone="no"?>
<!DOCTYPE svg PUBLIC "-//W3C//DTD SVG 20010904//EN" "http://www.w3.org/TR/2001/REC-SVG-20010904/DTD/svg10.dtd">
<svg version="1.0" xmlns="http://www.w3.org/2000/svg" width="512.000000pt" height="512.000000pt" viewBox="0 0 512.000000 512.000000" preserveAspectRatio="xMidYMid meet">

    <g transform="translate(0.000000,512.000000) scale(0.100000,-0.100000)" fill="#000000" stroke="none">
        <path d="M3318 4899 c-68 -10 -187 -58 -253 -101 -58 -38 -78 -81 -73 -155 3
-50 2 -53 -20 -53 -31 0 -168 -35 -218 -56 -21 -9 -70 -36 -108 -61 l-68 -44
-22 20 c-47 44 -127 69 -276 87 -325 38 -553 -20 -626 -158 -19 -36 -18 -113
2 -168 16 -45 16 -47 -11 -110 -81 -195 -98 -275 -115 -565 -6 -99 -16 -198
-22 -220 -11 -45 -54 -132 -97 -200 -83 -131 -171 -415 -171 -552 0 -68 -7
-80 -71 -116 -60 -34 -161 -159 -204 -252 -39 -84 -55 -151 -100 -440 -68
-437 -98 -699 -98 -865 1 -169 8 -214 64 -360 54 -142 142 -203 267 -185 94
13 149 48 272 173 99 100 123 132 170 220 70 132 115 190 177 230 74 47 146
68 349 102 182 30 186 31 413 22 125 -4 275 -4 332 0 67 6 112 5 126 -1 25
-11 61 -78 88 -161 10 -30 33 -94 51 -142 31 -79 34 -97 34 -191 0 -96 2 -109
31 -165 61 -123 162 -194 303 -212 82 -10 179 1 230 27 17 9 64 38 104 66 132
91 151 167 90 353 l-33 99 4 225 c3 124 5 290 5 370 1 162 -31 951 -40 1018
-9 58 11 55 25 -5 14 -60 31 -295 31 -434 0 -58 3 -146 6 -196 l7 -90 56 30
c103 55 160 129 161 207 0 19 -16 80 -35 135 -28 81 -35 115 -35 180 0 135
-19 297 -45 401 -38 149 -41 133 61 360 30 67 63 157 74 199 11 43 21 80 23
81 1 1 21 -3 44 -9 38 -10 46 -9 70 9 49 36 92 137 104 244 15 126 0 292 -31
348 -40 71 -102 89 -175 52 -21 -11 -39 -19 -41 -17 -1 1 -9 18 -19 37 -10 19
-63 82 -119 140 -56 58 -132 141 -170 184 -39 43 -104 106 -145 139 -42 32
-77 61 -79 62 -2 2 22 48 52 102 43 77 56 109 56 142 0 84 -51 150 -150 194
-65 29 -134 38 -212 26z m-188 -375 c45 -14 133 -34 197 -45 164 -27 226 -62
368 -204 201 -201 352 -372 378 -427 35 -75 57 -183 57 -281 0 -122 -53 -402
-94 -502 -131 -313 -140 -328 -204 -349 -26 -9 -95 -43 -152 -76 -133 -75
-200 -94 -318 -88 -75 3 -100 9 -154 36 -90 44 -143 94 -258 242 -62 79 -124
147 -165 180 -80 63 -160 158 -189 220 -34 75 -27 172 27 385 54 214 67 294
67 412 0 72 -5 99 -26 148 -24 56 -63 186 -64 211 0 14 108 85 170 113 56 24
170 49 232 50 26 1 83 -11 128 -25z m-752 -42 c31 -20 36 -128 6 -153 -10 -8
-14 -5 -19 18 -3 15 -11 47 -17 70 -15 59 -3 85 30 65z m-108 -31 c15 -29 12
-91 -6 -147 -24 -71 -29 -71 -26 -3 2 34 -1 81 -7 106 -7 24 -9 48 -6 54 10
15 34 10 45 -10z m-262 -3 c13 -13 15 -60 5 -160 -8 -88 -27 -90 -42 -5 -14
78 -14 118 -1 151 11 29 20 32 38 14z m143 -9 c16 -31 7 -155 -12 -175 -15
-14 -17 -9 -27 63 -6 43 -14 90 -18 106 -6 24 -4 27 19 27 17 0 31 -8 38 -21z
m-361 -6 c0 -9 -50 -219 -58 -243 -8 -25 -23 102 -17 145 7 49 39 105 60 105
8 0 15 -3 15 -7z m-271 -1488 c3 -219 52 -389 127 -436 46 -28 117 -29 206 -1
141 44 236 41 293 -9 19 -17 54 -58 78 -92 57 -80 126 -143 183 -169 25 -11
106 -35 181 -54 75 -19 150 -42 166 -51 74 -44 93 -118 58 -232 -12 -38 -24
-90 -27 -114 -8 -58 19 -194 56 -277 16 -36 31 -82 35 -102 l6 -37 -67 -21
c-134 -41 -221 -44 -544 -21 -303 22 -395 37 -475 79 -70 36 -171 115 -221
172 -26 30 -76 84 -110 120 -58 61 -94 125 -119 210 -4 14 -29 71 -57 127 -63
128 -68 173 -38 338 12 66 26 161 30 210 10 113 29 196 74 311 40 107 79 187
111 229 12 17 26 41 31 55 10 29 21 -84 23 -235z m2529 -1102 c4 -24 -23 -83
-38 -83 -11 0 -14 93 -3 104 13 13 38 1 41 -21z m-84 -44 c-3 -92 -33 -118
-46 -39 -8 49 5 83 30 78 12 -3 17 -13 16 -39z m-2664 -1198 c12 -24 13 -121
1 -121 -5 0 -13 6 -19 13 -15 18 -34 97 -28 113 8 20 34 17 46 -5z m-61 -20
c6 -10 12 -38 13 -61 4 -53 -18 -66 -33 -20 -6 17 -13 29 -15 27 -2 -2 1 -19
7 -37 10 -28 10 -35 -5 -45 -9 -7 -16 -17 -15 -21 7 -39 -45 -4 -72 48 -21 42
-18 58 11 58 10 0 20 7 24 15 3 8 12 15 21 15 8 0 15 9 15 20 0 26 36 27 49 1z
m-174 -105 c19 -29 32 -96 18 -96 -12 0 -47 38 -63 68 -24 48 16 73 45 28z
m2303 -69 c3 -69 -13 -124 -28 -96 -14 27 -21 141 -8 156 21 26 33 7 36 -60z
m279 -15 c-10 -87 -47 -79 -47 10 0 48 14 64 39 45 9 -8 12 -25 8 -55z m-69
-4 c3 -65 -22 -144 -38 -118 -11 17 -13 163 -3 174 4 4 14 5 23 4 11 -2 16
-18 18 -60z m-82 17 c7 -30 -2 -99 -17 -128 -9 -16 -13 -17 -20 -6 -10 16 -12
143 -2 152 14 15 33 6 39 -18z" />
        <path d="M3141 4029 c-164 -34 -242 -83 -256 -162 -10 -51 11 -116 41 -129 34
-16 112 1 212 46 42 19 97 40 121 46 50 13 101 58 101 90 0 57 -59 131 -104
129 -11 0 -63 -10 -115 -20z m69 -114 c17 -9 30 -22 30 -30 0 -23 -62 -19 -88
6 -40 37 1 53 58 24z" />
        <path d="M3634 3660 c-52 -21 -94 -116 -94 -216 0 -10 -11 -41 -25 -69 -60
-123 -5 -227 111 -209 54 8 121 54 130 90 4 14 4 49 1 77 -4 32 -1 75 8 112
20 82 18 124 -5 162 -19 31 -66 64 -92 62 -7 0 -22 -4 -34 -9z m32 -117 c3
-16 7 -33 9 -40 2 -6 -3 -17 -11 -23 -11 -10 -16 -7 -28 20 -15 37 -11 70 10
70 7 0 16 -12 20 -27z" />
        <path d="M3023 3573 c-24 -37 -21 -89 11 -150 56 -112 15 -153 -95 -98 -55 29
-83 67 -93 126 -4 26 -11 39 -19 36 -29 -9 -15 -92 25 -143 25 -31 131 -84
171 -84 22 0 27 -5 27 -23 0 -31 50 -109 87 -135 57 -41 178 -56 178 -22 0 11
-16 17 -61 21 -73 7 -113 32 -150 94 -23 40 -24 48 -14 80 6 19 15 35 18 35 4
0 31 -9 60 -20 102 -39 182 -21 182 41 0 34 -50 111 -91 140 -18 12 -60 47
-92 76 -71 63 -115 71 -144 26z" />
    </g>
</svg>